<mxfile host="drawio-plugin" modified="2022-02-04T09:30:21.425Z" agent="5.0 (Macintosh; Intel Mac OS X 12_1_0) AppleWebKit/537.36 (KHTML, like Gecko) Chrome/89.0.4389.114 Safari/537.36" etag="EeaelkuGT4AQ8kxdhKhy" version="15.5.4" type="embed"><diagram id="27UEhvcbevQ5RNf_Fo5W" name="Status Quo"><mxGraphModel dx="984" dy="473" grid="1" gridSize="10" guides="1" tooltips="1" connect="1" arrows="1" fold="1" page="1" pageScale="1" pageWidth="827" pageHeight="1169" math="0" shadow="0"><root><mxCell id="0"/><mxCell id="1" parent="0"/><mxCell id="30" style="rounded=0;orthogonalLoop=1;jettySize=auto;html=1;exitX=1;exitY=0;exitDx=0;exitDy=0;entryX=0;entryY=1;entryDx=0;entryDy=0;" edge="1" parent="1" source="24" target="25"><mxGeometry relative="1" as="geometry"/></mxCell><mxCell id="31" style="edgeStyle=none;rounded=0;orthogonalLoop=1;jettySize=auto;html=1;exitX=1;exitY=0.5;exitDx=0;exitDy=0;entryX=0;entryY=0.5;entryDx=0;entryDy=0;" edge="1" parent="1" source="24" target="26"><mxGeometry relative="1" as="geometry"/></mxCell><mxCell id="33" style="edgeStyle=none;rounded=0;orthogonalLoop=1;jettySize=auto;html=1;exitX=1;exitY=1;exitDx=0;exitDy=0;entryX=0;entryY=0;entryDx=0;entryDy=0;" edge="1" parent="1" source="24" target="27"><mxGeometry relative="1" as="geometry"/></mxCell><mxCell id="34" style="edgeStyle=none;rounded=0;orthogonalLoop=1;jettySize=auto;html=1;exitX=0;exitY=0;exitDx=0;exitDy=0;entryX=1;entryY=1;entryDx=0;entryDy=0;" edge="1" parent="1" source="24" target="28"><mxGeometry relative="1" as="geometry"/></mxCell><mxCell id="35" style="edgeStyle=none;rounded=0;orthogonalLoop=1;jettySize=auto;html=1;exitX=0;exitY=1;exitDx=0;exitDy=0;entryX=1;entryY=0;entryDx=0;entryDy=0;" edge="1" parent="1" source="24" target="29"><mxGeometry relative="1" as="geometry"/></mxCell><mxCell id="24" value="Data Team" style="ellipse;whiteSpace=wrap;html=1;" vertex="1" parent="1"><mxGeometry x="293.5" y="160" width="240" height="160" as="geometry"/></mxCell><mxCell id="25" value="Domain Team:&lt;br&gt;Consumer-aligned" style="ellipse;whiteSpace=wrap;html=1;" vertex="1" parent="1"><mxGeometry x="540" y="50" width="120" height="80" as="geometry"/></mxCell><mxCell id="26" value="Domain Team:&lt;br&gt;Aggregate" style="ellipse;whiteSpace=wrap;html=1;" vertex="1" parent="1"><mxGeometry x="610" y="200" width="120" height="80" as="geometry"/></mxCell><mxCell id="27" value="Domain Team:&lt;br&gt;Source-aligned" style="ellipse;whiteSpace=wrap;html=1;" vertex="1" parent="1"><mxGeometry x="550" y="360" width="120" height="80" as="geometry"/></mxCell><mxCell id="28" value="Data Platform Team" style="ellipse;whiteSpace=wrap;html=1;" vertex="1" parent="1"><mxGeometry x="160" y="70" width="120" height="80" as="geometry"/></mxCell><mxCell id="29" value="Enablement Team" style="ellipse;whiteSpace=wrap;html=1;" vertex="1" parent="1"><mxGeometry x="160" y="330" width="120" height="80" as="geometry"/></mxCell><mxCell id="36" value="" style="shape=umlActor;verticalLabelPosition=bottom;verticalAlign=top;html=1;outlineConnect=0;" vertex="1" parent="1"><mxGeometry x="340" y="210" width="30" height="60" as="geometry"/></mxCell><mxCell id="38" value="" style="shape=umlActor;verticalLabelPosition=bottom;verticalAlign=top;html=1;outlineConnect=0;" vertex="1" parent="1"><mxGeometry x="460" y="200" width="30" height="60" as="geometry"/></mxCell><mxCell id="39" value="" style="shape=umlActor;verticalLabelPosition=bottom;verticalAlign=top;html=1;outlineConnect=0;" vertex="1" parent="1"><mxGeometry x="398.5" y="170" width="30" height="60" as="geometry"/></mxCell><mxCell id="40" value="" style="shape=umlActor;verticalLabelPosition=bottom;verticalAlign=top;html=1;outlineConnect=0;" vertex="1" parent="1"><mxGeometry x="399" y="250" width="30" height="60" as="geometry"/></mxCell></root></mxGraphModel></diagram></mxfile>